<?xml version="1.0" encoding="UTF-8"?>
<svg width="32px" height="32px" viewBox="0 0 32 32" version="1.1" xmlns="http://www.w3.org/2000/svg" xmlns:xlink="http://www.w3.org/1999/xlink">
    <title>EE3986A9-4264-496E-BF88-279260D67A12@1x</title>
    <g id="Web" stroke="none" stroke-width="1" fill="none" fill-rule="evenodd" stroke-linecap="round" stroke-linejoin="round">
        <g id="Temporary-Ops-CSHelp" transform="translate(-16.000000, -632.000000)" stroke="#0F0F0F" stroke-width="1.5">
            <g id="element/acct/list-copy-3" transform="translate(0.000000, 612.000000)">
                <g id="cog" transform="translate(16.000000, 20.000000)">
                    <path d="M14.0613333,3.25066667 C14.5561456,3.7999293 15.2607242,4.11352011 16,4.11352011 C16.7392758,4.11352011 17.4438544,3.7999293 17.9386667,3.25066667 L19.2,1.86666667 C19.94075,1.0468562 21.1172013,0.781811386 22.1379378,1.20477344 C23.1586742,1.62773549 23.8028646,2.64719869 23.7466667,3.75066667 L23.652,5.61733333 C23.6149738,6.35369656 23.8910398,7.07138295 24.4120039,7.59310907 C24.932968,8.11483519 25.6502501,8.39194986 26.3866667,8.356 L28.2533333,8.26133333 C29.3560563,8.20696795 30.3738661,8.85180569 30.795742,9.87208712 C31.2176179,10.8923685 30.9524339,12.0677111 30.1333333,12.808 L28.744,14.0613333 C28.1954382,14.5568246 27.8823794,15.2614565 27.8823794,16.0006667 C27.8823794,16.7398768 28.1954382,17.4445088 28.744,17.94 L30.1333333,19.1933333 C30.9531438,19.9340833 31.2181886,21.1105347 30.7952266,22.1312711 C30.3722645,23.1520075 29.3528013,23.7961979 28.2493333,23.74 L26.3826667,23.6453333 C25.6446351,23.6073694 24.9250899,23.8839757 24.4025328,24.4065328 C23.8799757,24.9290899 23.6033694,25.6486351 23.6413333,26.3866667 L23.736,28.2533333 C23.7849017,29.3509731 23.1416729,30.3618677 22.1266693,30.7825482 C21.1116657,31.2032287 19.9419137,30.9437459 19.2,30.1333333 L17.9453333,28.7453333 C17.4500836,28.1968356 16.7456674,27.8837949 16.0066667,27.8837949 C15.2676659,27.8837949 14.5632498,28.1968356 14.068,28.7453333 L12.808,30.1333333 C12.067198,30.9476096 10.8953928,31.2100274 9.87805903,30.7894737 C8.86072524,30.36892 8.21626247,29.3556785 8.26666667,28.256 L8.36266667,26.3893333 C8.40063055,25.6513017 8.12402432,24.9317566 7.60146719,24.4091995 C7.07891005,23.8866423 6.35936495,23.6100361 5.62133333,23.648 L3.75466667,23.7426667 C2.651642,23.8002388 1.63174693,23.1574336 1.2078434,22.1374906 C0.783939871,21.1175476 1.04777074,19.9412067 1.86666667,19.2 L3.25466667,17.9466667 C3.80322847,17.4511754 4.11628731,16.7465435 4.11628731,16.0073333 C4.11628731,15.2681232 3.80322847,14.5634912 3.25466667,14.068 L1.86666667,12.808 C1.0505176,12.0676643 0.787077568,10.894612 1.20829638,9.87639252 C1.62951519,8.85817302 2.64468418,8.21405794 3.74533333,8.26666667 L5.612,8.36133333 C6.35145859,8.40021093 7.07264091,8.12324333 7.5959849,7.59939074 C8.1193289,7.07553815 8.39559584,6.35408714 8.356,5.61466667 L8.26666667,3.74666667 C8.21505239,2.64649246 8.85908647,1.63215829 9.87671854,1.21088371 C10.8943506,0.789609126 12.0668875,1.05192774 12.808,1.86666667 L14.0613333,3.25066667 Z" id="Shape"></path>
                    <circle id="Oval" cx="16" cy="16.0013333" r="6"></circle>
                </g>
            </g>
        </g>
    </g>
</svg>