<?xml version="1.0" encoding="utf-8"?>
<!-- Generator: Adobe Illustrator 20.0.0, SVG Export Plug-In . SVG Version: 6.00 Build 0)  -->
<svg version="1.1" id="Layer_1" xmlns="http://www.w3.org/2000/svg" xmlns:xlink="http://www.w3.org/1999/xlink" x="0px" y="0px"
	 viewBox="0 0 72 72" style="enable-background:new 0 0 72 72;" xml:space="preserve">
<style type="text/css">
	.st0{fill:#4AB863;}
</style>
<path class="st0" d="M68.6,6.6c-0.1-1.6-1.4-3-3-3L41.5,2.8c-1.6-0.1-3.9,0.8-5.1,2L3.5,37.7c-1.2,1.2-1.2,3,0,4.2l26.7,26.7
	c1.2,1.2,3,1.2,4.2,0l32.9-32.9c1.2-1.2,2.1-3.4,2-5.1L68.6,6.6z M62.2,16.1c-1.7,1.7-4.4,1.7-6.1,0s-1.7-4.4,0-6.1
	c1.7-1.7,4.4-1.7,6.1,0C63.8,11.6,63.8,14.4,62.2,16.1z"/>
</svg>
